# xmcd
#
# Track frame offsets: 
#        150
#        8402
#        19467
#        33073
#        50731
#        87058
#        99189
#        110393
#        119883
#        132799
#        147852
#        160658
#
# Disc length: 2290 seconds
#
# Revision: 0
# Processed by: cddbd v1.5.2PL0 Copyright (c) Steve Scherf et al.
# Submitted via: ExactAudioCopy v0.99pb5
#
DISCID=8f08f00c
DTITLE=Johnny Cash - Johnny Cash: House of Cash (Book CD)
DYEAR=2011
DGENRE=Country
TTITLE0=These Are My People
TTITLE1=Sixteen Tons
TTITLE2=Billy Brown
TTITLE3=If It Wasn't For The Wabash River
TTITLE4=Rdin' On The Cottonbelt
TTITLE5=While I've Got It On My Mind
TTITLE6=You're Home Sweet Home To Me
TTITLE7=Kathy
TTITLE8=Sold Out Of Flagpoles
TTITLE9=One Of These Days I'm Gonna Sit Down And Talk To Paul
TTITLE10=My Children Walk In The Truth
TTITLE11=I'll Go Somewhere And Sing My Songs Again
EXTD=
EXTT0=
EXTT1=
EXTT2=
EXTT3=
EXTT4=
EXTT5=
EXTT6=
EXTT7=
EXTT8=
EXTT9=
EXTT10=
EXTT11=
PLAYORDER=
